<svg id="_レイヤー_2" xmlns="http://www.w3.org/2000/svg" width="31.66mm" height="34.66mm" viewBox="0 0 89.74 98.25"><g id="_レイヤー_1-2"><path d="m81.06,37.23h-24.38c-4.77,0-8.68,2.81-8.68,6.25v6.25h16.02c4.77,0,8.68,2.58,8.68,5.75v6.67h-10.78v11.14c-1.72-1.06-3.76-1.96-6-2.66-.44-.1-.88-.23-1.34-.39-3.05-.81-6.45-1.28-10.04-1.28-6.52,0-12.42,1.5-16.7,3.92v-39.79c0-4.77,3.91-8.68,8.68-8.68h13.67c4.77,0,8.68-3.91,8.68-8.68v-7.05c0-4.77-3.91-8.68-8.68-8.68H8.68C3.91,0,0,3.91,0,8.68v80.89c0,4.77,3.91,8.68,8.68,8.68h72.38c4.77,0,8.68-3.9,8.68-8.68v-43.67c0-4.77-3.91-8.68-8.68-8.68Z" style="fill:#9dc43a;"/><path d="m74.34,18.27c0,3.43-2.29,6.24-5.09,6.24s-5.09-2.81-5.09-6.24V6.24c0-3.43,2.29-6.24,5.09-6.24s5.09,2.81,5.09,6.24v12.03Z" style="fill:#9dc43a;"/><path d="m89.74,18.27c0,3.43-2.29,6.24-5.09,6.24s-5.09-2.81-5.09-6.24V6.24c0-3.43,2.29-6.24,5.09-6.24s5.09,2.81,5.09,6.24v12.03Z" style="fill:#9dc43a;"/><path d="m27.82,33.09c0-1.49.38-2.9,1.05-4.13.18-.34.39-.66.62-.97,1.58-2.17,4.14-3.58,7.01-3.58h13.67c4.77,0,8.68-3.91,8.68-8.68v-7.05c0-4.77-3.91-8.68-8.68-8.68H8.68C3.91,0,0,3.91,0,8.68v42.08c8.39,2.74,17.77,4.78,27.82,5.96v-23.63Z" style="fill:#c2da69;"/><path d="m81.06,37.23h-24.38c-4.77,0-8.68,2.81-8.68,6.25v6.25h16.02c4.77,0,8.68,2.59,8.68,5.75v.63c5.97-.88,11.68-2.05,17.04-3.5v-6.7c0-4.77-3.91-8.68-8.68-8.68Z" style="fill:#c2da69;"/><path d="m70.08,56.01h0c0-2.02-3.91-3.67-8.68-3.67h-13.23v3.67c0,2.02,3.91,3.67,8.68,3.67h13.23v-3.67Z" style="fill:#040000;"/></g></svg>